<svg xmlns="http://www.w3.org/2000/svg" version="1.1" xmlns:xlink="http://www.w3.org/1999/xlink" xmlns:svgjs="http://svgjs.com/svgjs" width="1442" height="563" preserveAspectRatio="none" viewBox="0 0 1442 563"><g mask="url(&quot;#SvgjsMask1024&quot;)" fill="none"><rect width="1442" height="563" x="0" y="0" fill="#0e2a47"></rect><path d="M22.01 14.49L61.34 14.49L61.34 53.82L22.01 53.82z" fill="rgba(106, 17, 203, 1)"></path><path d="M1132.1 308.91L1133.89 308.91L1133.89 310.7L1132.1 310.7z" fill="rgba(106, 17, 203, 1)"></path><path d="M366.57 236.9L387.87 236.9L387.87 258.2L366.57 258.2z" stroke="rgba(37, 117, 252, 1)"></path><path d="M523.61 147.4L534.14 147.4L534.14 157.93L523.61 157.93z" stroke="rgba(106, 17, 203, 1)"></path><path d="M479.58 240.24L513.73 240.24L513.73 274.39L479.58 274.39z" stroke="rgba(106, 17, 203, 1)"></path><path d="M252.99 15.11L271.71 15.11L271.71 33.83L252.99 33.83z" fill="rgba(37, 117, 252, 1)"></path><path d="M1370.82 199.95 a2.48 2.48 0 1 0 4.96 0 a2.48 2.48 0 1 0 -4.96 0z" stroke="rgba(37, 117, 252, 1)"></path><path d="M1137.45 64.93L1191.43 64.93L1191.43 77.76L1137.45 77.76z" fill="rgba(37, 117, 252, 1)"></path><path d="M1110.23 49.89L1154.5 49.89L1154.5 94.16L1110.23 94.16z" fill="rgba(106, 17, 203, 1)"></path><path d="M1366.77 309 a27.07 27.07 0 1 0 54.14 0 a27.07 27.07 0 1 0 -54.14 0z" stroke="rgba(106, 17, 203, 1)"></path><path d="M252.77 561.58L257.75 561.58L257.75 597.19L252.77 597.19z" stroke="rgba(37, 117, 252, 1)"></path><path d="M893.64 435.94 a36.87 36.87 0 1 0 73.74 0 a36.87 36.87 0 1 0 -73.74 0z" fill="rgba(106, 17, 203, 1)"></path><path d="M765.14 499.34a34.91 34.91 0 1 0-26.9 64.43z" stroke="rgba(37, 117, 252, 1)"></path><path d="M690.98 240.92L717.57 240.92L717.57 267.51L690.98 267.51z" stroke="rgba(106, 17, 203, 1)"></path><path d="M815.41 487.39L846.02 487.39L846.02 489.43L815.41 489.43z" fill="rgba(37, 117, 252, 1)"></path><path d="M1322 37.71L1374.35 37.71L1374.35 90.06L1322 90.06z" stroke="rgba(106, 17, 203, 1)"></path><path d="M62.78 326.37L71.21 326.37L71.21 370.4L62.78 370.4z" fill="rgba(106, 17, 203, 1)"></path><path d="M921.06 247.51L923.38 247.51L923.38 269.36L921.06 269.36z" fill="rgba(106, 17, 203, 1)"></path><path d="M746.95 443.4a48.83 48.83 0 1 0-0.61 97.66z" stroke="rgba(106, 17, 203, 1)"></path><path d="M221.87 474.57L275.11 474.57L275.11 517.57L221.87 517.57z" stroke="rgba(106, 17, 203, 1)"></path><path d="M366.89 226.87 a32.44 32.44 0 1 0 64.88 0 a32.44 32.44 0 1 0 -64.88 0z" stroke="rgba(106, 17, 203, 1)"></path><path d="M247.03 292.25L284.49 292.25L284.49 329.71L247.03 329.71z" fill="rgba(106, 17, 203, 1)"></path><path d="M1011.64 362.44L1066.86 362.44L1066.86 393.81L1011.64 393.81z" stroke="rgba(37, 117, 252, 1)"></path><path d="M1103.94 169.14a3.76 3.76 0 1 0-7.45 1.06z" fill="rgba(106, 17, 203, 1)"></path><path d="M637.28 54.95a10.11 10.11 0 1 0-18.6-7.94z" stroke="rgba(37, 117, 252, 1)"></path><path d="M334.68 456.67L340.11 456.67L340.11 462.1L334.68 462.1z" fill="rgba(37, 117, 252, 1)"></path><path d="M1301.22 111.46L1332.24 111.46L1332.24 141.6L1301.22 141.6z" stroke="rgba(106, 17, 203, 1)"></path><path d="M1140.06 250.84a8.39 8.39 0 1 0 11.5-12.22z" fill="rgba(106, 17, 203, 1)"></path><path d="M1408.19 284.67 a14.28 14.28 0 1 0 28.56 0 a14.28 14.28 0 1 0 -28.56 0z" stroke="rgba(106, 17, 203, 1)"></path><path d="M89.29 230.57L130.57 230.57L130.57 271.85L89.29 271.85z" stroke="rgba(106, 17, 203, 1)"></path><path d="M662 513.87L700.23 513.87L700.23 533.12L662 533.12z" fill="rgba(106, 17, 203, 1)"></path><path d="M554.65 458.42 a30.61 30.61 0 1 0 61.22 0 a30.61 30.61 0 1 0 -61.22 0z" fill="rgba(106, 17, 203, 1)"></path><path d="M489.22 406.64L524.39 406.64L524.39 441.81L489.22 441.81z" fill="rgba(106, 17, 203, 1)"></path></g><defs><mask id="SvgjsMask1024"><rect width="1442" height="563" fill="#ffffff"></rect></mask></defs></svg>